<svg width="215" height="36" viewBox="0 0 215 36" fill="none" xmlns="http://www.w3.org/2000/svg">
<g clip-path="url(#clip0)">
<path d="M48.3679 26.3254H44.9721V5.31799H49.1669L52.6959 17.8026L56.2249 5.31799H60.4197V26.3254H57.0572V11.5769L54.2606 21.7644H51.1644L48.3679 11.6102V26.3254ZM66.9299 9.97891H70.4589C72.8559 9.97891 74.0544 11.0776 74.0544 13.2748V19.2342H66.9632V22.5967C66.9632 22.9518 67.0187 23.1959 67.1296 23.3291C67.2628 23.4401 67.518 23.4956 67.8954 23.4956H69.4268C69.7819 23.4956 70.0261 23.4401 70.1592 23.3291C70.2924 23.1959 70.359 22.9518 70.359 22.5967V21.3649H74.0211V23.0295C74.0211 25.2268 72.8115 26.3254 70.3923 26.3254H66.9299C64.5106 26.3254 63.301 25.2268 63.301 23.0295V13.2748C63.301 11.0776 64.5106 9.97891 66.9299 9.97891ZM66.9632 16.8038H70.4256V13.6744C70.4256 13.3192 70.359 13.0862 70.2258 12.9752C70.0926 12.842 69.8485 12.7755 69.4934 12.7755H67.8954C67.5402 12.7755 67.2961 12.842 67.1629 12.9752C67.0298 13.0862 66.9632 13.3192 66.9632 13.6744V16.8038ZM83.1632 9.91233H83.7625V13.175H82.3642C80.966 13.175 80.2668 13.974 80.2668 15.572V26.3254H76.5048V9.97891H80.2335V12.0763C80.4111 11.4327 80.7551 10.9111 81.2656 10.5116C81.7761 10.1121 82.4086 9.91233 83.1632 9.91233ZM91.9066 9.97891H95.6354V26.3254H91.84V24.9271C91.5071 25.8593 90.7414 26.3254 89.5429 26.3254H88.5108C86.2469 26.3254 85.115 25.2268 85.115 23.0295V13.2748C85.115 11.0776 86.2469 9.97891 88.5108 9.97891H89.5429C90.8524 9.97891 91.6403 10.5116 91.9066 11.5769V9.97891ZM89.8092 23.3957H90.808C91.496 23.3957 91.84 23.0295 91.84 22.297V14.0073C91.84 13.2748 91.496 12.9086 90.808 12.9086H89.8092C89.4541 12.9086 89.2099 12.9752 89.0768 13.1084C88.9436 13.2194 88.877 13.4524 88.877 13.8075V22.4968C88.877 22.8519 88.9436 23.0961 89.0768 23.2292C89.2099 23.3402 89.4541 23.3957 89.8092 23.3957ZM110.003 9.97891L106.341 17.8359L110.003 26.3254H106.041L102.512 17.8359L106.074 9.97891H110.003ZM98.4504 26.3254V4.05289H102.212V26.3254H98.4504ZM111.355 7.31553V4.0196H115.317V7.31553H111.355ZM115.217 26.3254H111.455V9.97891H115.217V26.3254ZM130.277 22.4968V18.0023C130.277 17.6472 130.21 17.4142 130.077 17.3032C129.944 17.17 129.7 17.1035 129.345 17.1035H126.648C124.362 17.1035 123.219 15.9937 123.219 13.7742V8.61393C123.219 6.41664 124.418 5.31799 126.815 5.31799H130.477C132.874 5.31799 134.072 6.41664 134.072 8.61393V11.5436H130.21V9.1466C130.21 8.79149 130.144 8.55844 130.011 8.44747C129.877 8.3143 129.633 8.24771 129.278 8.24771H128.013C127.636 8.24771 127.381 8.3143 127.247 8.44747C127.114 8.55844 127.048 8.79149 127.048 9.1466V13.3747C127.048 13.7298 127.114 13.974 127.247 14.1072C127.381 14.2181 127.636 14.2736 128.013 14.2736H130.643C132.974 14.2736 134.139 15.3612 134.139 17.5363V23.0295C134.139 25.2268 132.929 26.3254 130.51 26.3254H126.914C124.495 26.3254 123.286 25.2268 123.286 23.0295V20.133H127.114V22.4968C127.114 22.8519 127.181 23.0961 127.314 23.2292C127.447 23.3402 127.702 23.3957 128.08 23.3957H129.345C129.7 23.3957 129.944 23.3402 130.077 23.2292C130.21 23.0961 130.277 22.8519 130.277 22.4968ZM140.212 9.97891H143.741C146.138 9.97891 147.336 11.0776 147.336 13.2748V19.2342H140.245V22.5967C140.245 22.9518 140.301 23.1959 140.412 23.3291C140.545 23.4401 140.8 23.4956 141.177 23.4956H142.709C143.064 23.4956 143.308 23.4401 143.441 23.3291C143.574 23.1959 143.641 22.9518 143.641 22.5967V21.3649H147.303V23.0295C147.303 25.2268 146.093 26.3254 143.674 26.3254H140.212C137.793 26.3254 136.583 25.2268 136.583 23.0295V13.2748C136.583 11.0776 137.793 9.97891 140.212 9.97891ZM140.245 16.8038H143.708V13.6744C143.708 13.3192 143.641 13.0862 143.508 12.9752C143.375 12.842 143.13 12.7755 142.775 12.7755H141.177C140.822 12.7755 140.578 12.842 140.445 12.9752C140.312 13.0862 140.245 13.3192 140.245 13.6744V16.8038ZM156.445 9.91233H157.044V13.175H155.646C154.248 13.175 153.549 13.974 153.549 15.572V26.3254H149.787V9.97891H153.516V12.0763C153.693 11.4327 154.037 10.9111 154.548 10.5116C155.058 10.1121 155.691 9.91233 156.445 9.91233ZM161.06 9.97891L163.158 22.7964L165.255 9.97891H169.017L165.655 26.3254H160.661L157.298 9.97891H161.06ZM170.462 7.31553V4.0196H174.424V7.31553H170.462ZM174.324 26.3254H170.562V9.97891H174.324V26.3254ZM187.482 15.4721H183.786V13.8075C183.786 13.4524 183.72 13.2194 183.586 13.1084C183.453 12.9752 183.209 12.9086 182.854 12.9086H181.656C181.3 12.9086 181.056 12.9752 180.923 13.1084C180.79 13.2194 180.723 13.4524 180.723 13.8075V22.4968C180.723 22.8519 180.79 23.0961 180.923 23.2292C181.056 23.3402 181.3 23.3957 181.656 23.3957H182.854C183.209 23.3957 183.453 23.3402 183.586 23.2292C183.72 23.0961 183.786 22.8519 183.786 22.4968V20.7989H187.482V23.0295C187.482 25.2268 186.272 26.3254 183.853 26.3254H180.59C178.171 26.3254 176.961 25.2268 176.961 23.0295V13.2748C176.961 11.0776 178.171 9.97891 180.59 9.97891H183.853C186.272 9.97891 187.482 11.0776 187.482 13.2748V15.4721ZM193.304 9.97891H196.833C199.23 9.97891 200.428 11.0776 200.428 13.2748V19.2342H193.337V22.5967C193.337 22.9518 193.393 23.1959 193.504 23.3291C193.637 23.4401 193.892 23.4956 194.269 23.4956H195.801C196.156 23.4956 196.4 23.4401 196.533 23.3291C196.666 23.1959 196.733 22.9518 196.733 22.5967V21.3649H200.395V23.0295C200.395 25.2268 199.186 26.3254 196.766 26.3254H193.304C190.885 26.3254 189.675 25.2268 189.675 23.0295V13.2748C189.675 11.0776 190.885 9.97891 193.304 9.97891ZM193.337 16.8038H196.8V13.6744C196.8 13.3192 196.733 13.0862 196.6 12.9752C196.467 12.842 196.223 12.7755 195.867 12.7755H194.269C193.914 12.7755 193.67 12.842 193.537 12.9752C193.404 13.0862 193.337 13.3192 193.337 13.6744V16.8038ZM208.805 22.7298V20.4327C208.805 20.0776 208.738 19.8445 208.605 19.7335C208.472 19.6004 208.217 19.5338 207.839 19.5338H206.042C203.667 19.5338 202.479 18.4462 202.479 16.2711V13.2748C202.479 11.0776 203.689 9.97891 206.108 9.97891H208.738C211.135 9.97891 212.334 11.0776 212.334 13.2748V14.8063H208.705V13.5745C208.705 13.2194 208.638 12.9863 208.505 12.8753C208.372 12.7422 208.128 12.6756 207.773 12.6756H207.107C206.73 12.6756 206.474 12.7422 206.341 12.8753C206.208 12.9863 206.141 13.2194 206.141 13.5745V15.9715C206.141 16.3266 206.208 16.5708 206.341 16.7039C206.474 16.8149 206.73 16.8704 207.107 16.8704H208.905C211.302 16.8704 212.5 17.958 212.5 20.133V23.0295C212.5 25.2268 211.291 26.3254 208.871 26.3254H206.175C203.755 26.3254 202.546 25.2268 202.546 23.0295V21.5313H206.241V22.7298C206.241 23.085 206.308 23.3291 206.441 23.4623C206.574 23.5732 206.818 23.6287 207.174 23.6287H207.839C208.217 23.6287 208.472 23.5732 208.605 23.4623C208.738 23.3291 208.805 23.085 208.805 22.7298Z" fill="#254840"/>
<path d="M17.7359 15.2814L10.4926 9.60776" stroke="black" stroke-width="1.62952" stroke-miterlimit="10" stroke-linejoin="round"/>
<path d="M24.7492 20.7702L36.6315 30.088L36.9564 30.303" stroke="black" stroke-width="1.62952" stroke-miterlimit="10" stroke-linecap="round" stroke-linejoin="round"/>
<path d="M3.33423 29.6931V28.7633V2.69437H39.2209V28.7283V29.6031" stroke="black" stroke-width="2.35985" stroke-miterlimit="10" stroke-linejoin="round"/>
<path d="M5.54871 30.5279L6.09858 30.138L28.3384 14.2217" stroke="black" stroke-width="1.62952" stroke-miterlimit="10" stroke-linejoin="round"/>
<path d="M26.8988 12.1572L9.0929 25.0142" stroke="black" stroke-width="1.62952" stroke-miterlimit="10" stroke-linecap="round"/>
<path fill-rule="evenodd" clip-rule="evenodd" d="M28.4234 13.147C28.3984 13.122 28.3734 13.092 28.3484 13.067C27.9185 12.6171 27.7685 12.3971 27.8235 12.4621L28.4234 13.147Z" fill="white"/>
<path fill-rule="evenodd" clip-rule="evenodd" d="M35.3518 9.08788C35.2568 8.71797 34.9319 8.60299 34.622 8.82794C34.277 9.07788 33.9371 9.32283 33.5922 9.57277C32.9374 10.0477 32.2825 10.5275 31.6227 10.9924C31.2727 11.2424 30.8978 11.2724 30.5129 11.0774C30.143 10.8925 29.9331 10.5875 29.9281 10.1676C29.9231 9.74773 30.108 9.41281 30.4479 9.16786C31.4127 8.46803 32.3775 7.77319 33.3423 7.07335C33.6672 6.8384 33.6572 6.49348 33.3223 6.27853C32.4725 5.73866 31.5477 5.49872 30.5429 5.52871C28.1635 5.60369 26.3639 7.53824 26.009 9.92769C25.864 11.0224 26.0939 11.7423 26.7238 12.5521C26.7688 12.6121 26.8138 12.667 26.8588 12.722L27.6186 12.1772C27.5686 12.1172 27.5036 12.0422 27.4586 11.9772C26.9587 11.3274 26.8138 10.9524 26.8188 10.6225C26.8138 10.4176 26.8388 10.2376 26.8638 10.0327C27.0937 8.08311 28.6583 6.4235 30.6279 6.38851C31.2128 6.37851 31.7776 6.47849 32.3425 6.72843C31.5727 7.2833 30.8328 7.82318 30.088 8.35305C29.7231 8.61299 29.4132 8.91292 29.2332 9.32783C28.8783 10.1476 29.0882 11.0574 29.7681 11.6123C30.4429 12.1672 31.4077 12.2022 32.1275 11.6923C32.9124 11.1324 33.6922 10.5625 34.472 9.99767C34.517 9.96768 34.552 9.92769 34.612 9.8677C34.667 10.1276 34.657 10.3476 34.637 10.5675C34.482 12.4871 32.9973 13.9917 31.0778 14.1667C30.5929 14.2117 30.118 14.1467 29.6481 14.0217C29.3232 13.9368 29.1232 13.8568 28.6833 13.4019L28.2634 13.7168L27.9435 13.9468C28.6733 14.6366 29.1632 14.7966 29.4182 14.8715C29.7981 14.9815 30.193 15.0465 30.5929 15.0565C33.0023 15.1165 35.0519 13.4119 35.4368 11.0424C35.5517 10.3876 35.5168 9.73773 35.3518 9.08788Z" fill="#020202" stroke="black" stroke-width="0.734174" stroke-miterlimit="10"/>
<path d="M13.8818 17.9758L17.7359 15.2814" stroke="black" stroke-width="1.62952" stroke-miterlimit="10" stroke-linecap="round" stroke-linejoin="round"/>
<path fill-rule="evenodd" clip-rule="evenodd" d="M39.2209 28.7283C39.0859 28.7033 38.946 28.6883 38.801 28.6883C37.8362 28.6883 37.0114 29.2582 36.6365 30.083C36.4966 30.3829 36.4216 30.7179 36.4216 31.0678C36.4216 32.3825 37.4863 33.4472 38.801 33.4472C40.1157 33.4472 41.1805 32.3825 41.1805 31.0678C41.1805 29.903 40.3357 28.9283 39.2209 28.7283ZM38.801 32.1975C38.1812 32.1975 37.6763 31.6926 37.6763 31.0728C37.6763 31.0178 37.6813 30.9628 37.6863 30.9078C37.7663 30.3629 38.2361 29.943 38.801 29.943C38.951 29.943 39.0909 29.973 39.2209 30.023C39.6358 30.188 39.9258 30.5929 39.9258 31.0678C39.9258 31.6976 39.4209 32.1975 38.801 32.1975Z" fill="black"/>
<path fill-rule="evenodd" clip-rule="evenodd" d="M6.0986 30.138C5.78867 29.4132 5.12883 28.8733 4.32901 28.7333C4.19404 28.7083 4.05408 28.6933 3.90911 28.6933C3.70916 28.6933 3.5192 28.7183 3.33424 28.7633C2.62441 28.9383 2.04454 29.4332 1.74461 30.088C1.60964 30.3879 1.52966 30.7229 1.52966 31.0728C1.52966 32.3875 2.59442 33.4522 3.90911 33.4522C5.2238 33.4522 6.28856 32.3875 6.28856 31.0728C6.28856 30.7379 6.22357 30.4229 6.0986 30.138ZM3.90911 32.1975C3.71915 32.1975 3.54419 32.1525 3.38923 32.0725C3.36924 32.0625 3.34924 32.0525 3.33424 32.0425C3.00432 31.8476 2.78437 31.4877 2.78437 31.0728C2.78437 31.0178 2.78937 30.9628 2.79437 30.9078C2.84436 30.5629 3.04931 30.273 3.33424 30.103C3.5042 30.003 3.69916 29.943 3.90911 29.943C4.05907 29.943 4.19904 29.973 4.32901 30.023C4.69393 30.168 4.96386 30.4979 5.02385 30.8978C5.03385 30.9528 5.03385 31.0128 5.03385 31.0678C5.03885 31.6976 4.53396 32.1975 3.90911 32.1975Z" fill="black"/>
<path fill-rule="evenodd" clip-rule="evenodd" d="M11.5523 7.74322C11.2424 7.01839 10.5826 6.47851 9.78275 6.33854C9.64778 6.31355 9.50781 6.29855 9.36285 6.29855C9.16289 6.29855 8.97294 6.32355 8.78798 6.36854C8.07814 6.5435 7.49828 7.03838 7.19835 7.69323C7.06338 7.99316 6.9834 8.32808 6.9834 8.678C6.9834 9.99269 8.04815 11.0574 9.36285 11.0574C10.6775 11.0574 11.7423 9.99269 11.7423 8.678C11.7473 8.34808 11.6773 8.02815 11.5523 7.74322ZM9.36784 9.80774C9.17789 9.80774 9.00293 9.76275 8.84796 9.68277C8.82797 9.67277 8.80797 9.66277 8.79298 9.65277C8.46305 9.45782 8.24311 9.0979 8.24311 8.683C8.24311 8.62801 8.2481 8.57302 8.2531 8.51804C8.30309 8.17312 8.50804 7.88319 8.79298 7.71322C8.96294 7.61325 9.15789 7.55326 9.36784 7.55326C9.51781 7.55326 9.65778 7.58325 9.78775 7.63324C10.1527 7.77821 10.4226 8.10813 10.4826 8.50804C10.4926 8.56303 10.4926 8.62301 10.4926 8.678C10.4926 9.30286 9.9877 9.80774 9.36784 9.80774Z" fill="black"/>
</g>
<defs>
<clipPath id="clip0">
<rect width="215" height="35.6117" fill="white"/>
</clipPath>
</defs>
</svg>
