<?xml version="1.0" encoding="utf-8"?>
<!-- Generator: Adobe Illustrator 24.0.1, SVG Export Plug-In . SVG Version: 6.00 Build 0)  -->
<svg version="1.1" id="Capa_1" xmlns="http://www.w3.org/2000/svg" xmlns:xlink="http://www.w3.org/1999/xlink" x="0px" y="0px"
	 viewBox="0 0 3352.575 446.22" enable-background="new 0 0 3352.575 446.22" xml:space="preserve">
<g>
	<path fill="#254840" d="M67.932,446.22H0V25.974h83.916l70.596,249.75l70.597-249.75h83.916V446.22h-67.267V151.182
		l-55.943,203.795h-61.938L67.932,151.848V446.22z"/>
	<path fill="#254840" d="M439.553,119.214h70.597c47.952,0,71.928,21.978,71.928,65.934v119.213H440.219v67.267
		c0,7.107,1.218,11.884,3.663,14.318c2.436,2.446,7.431,3.663,14.985,3.663h30.636c7.098,0,11.988-1.217,14.652-3.663
		c2.664-2.435,3.996-7.211,3.996-14.318v-24.643h73.26v33.301c0,43.956-24.205,65.934-72.594,65.934h-69.265
		c-48.399,0-72.594-21.978-72.594-65.934V185.148C366.959,141.192,391.153,119.214,439.553,119.214z M440.219,255.744h69.265V193.14
		c0-7.097-1.332-11.874-3.996-14.319c-2.664-2.435-7.555-3.663-14.652-3.663h-31.968c-7.107,0-11.988,1.228-14.652,3.663
		c-2.664,2.445-3.996,7.222-3.996,14.319V255.744z"/>
	<path fill="#254840" d="M764.561,117.882h11.988v65.268h-27.973c-27.973,0-41.957,15.984-41.957,47.952V446.22h-75.26V119.214
		h74.594v41.958c3.547-12.873,10.426-23.31,20.645-31.302C736.807,121.878,749.461,117.882,764.561,117.882z"/>
	<path fill="#254840" d="M939.712,119.214h74.592V446.22H938.38v-27.972c-6.66,18.647-21.978,27.972-45.954,27.972H871.78
		c-45.288,0-67.933-21.978-67.933-65.934V185.148c0-43.956,22.645-65.934,67.933-65.934h20.646
		c26.192,0,41.958,10.656,47.286,31.968V119.214z M897.754,387.611h19.98c13.757,0,20.646-7.325,20.646-21.978V199.8
		c0-14.652-6.889-21.978-20.646-21.978h-19.98c-7.107,0-11.988,1.228-14.651,3.663c-2.664,2.445-3.996,7.222-3.996,14.319V369.63
		c0,7.107,1.332,11.884,3.996,14.318C885.766,386.395,890.646,387.611,897.754,387.611z"/>
	<path fill="#254840" d="M1070.912,446.22V0.666h75.259V446.22H1070.912z M1302.015,119.214l-73.26,157.175l73.26,169.83h-79.254
		l-70.597-169.83l71.263-157.175H1302.015z"/>
	<path fill="#254840" d="M1329.314,65.934V0h79.254v65.934H1329.314z M1406.571,446.22h-75.259V119.214h75.259V446.22z"/>
	<path fill="#254840" d="M1707.593,369.63v-89.91c0-7.097-1.332-11.873-3.996-14.318c-2.664-2.436-7.555-3.663-14.652-3.663h-53.945
		c-45.735,0-68.599-22.197-68.599-66.6V91.908c0-43.956,23.977-65.934,71.929-65.934h73.26c47.952,0,71.928,21.978,71.928,65.934
		v58.608h-77.256v-47.952c0-7.097-1.332-11.873-3.996-14.319c-2.664-2.435-7.555-3.663-14.651-3.663h-25.309
		c-7.555,0-12.654,1.228-15.318,3.663c-2.663,2.446-3.995,7.222-3.995,14.319v84.582c0,7.108,1.332,11.884,3.995,14.319
		c2.664,2.445,7.764,3.663,15.318,3.663h52.614c46.62,0,69.93,21.759,69.93,65.267v109.891c0,43.956-24.205,65.934-72.594,65.934
		h-71.928c-48.399,0-72.595-21.978-72.595-65.934v-57.942h76.591v47.286c0,7.107,1.332,11.884,3.995,14.318
		c2.664,2.446,7.764,3.663,15.318,3.663h25.308c7.098,0,11.988-1.217,14.652-3.663
		C1706.261,381.514,1707.593,376.737,1707.593,369.63z"/>
	<path fill="#254840" d="M1906.053,119.214h70.596c47.952,0,71.928,21.978,71.928,65.934v119.213h-141.857v67.267
		c0,7.107,1.217,11.884,3.663,14.318c2.435,2.446,7.43,3.663,14.984,3.663h30.636c7.098,0,11.988-1.217,14.652-3.663
		c2.664-2.435,3.996-7.211,3.996-14.318v-24.643h73.26v33.301c0,43.956-24.205,65.934-72.594,65.934h-69.264
		c-48.399,0-72.595-21.978-72.595-65.934V185.148C1833.458,141.192,1857.653,119.214,1906.053,119.214z M1906.719,255.744h69.264
		V193.14c0-7.097-1.332-11.874-3.996-14.319c-2.664-2.435-7.555-3.663-14.652-3.663h-31.968c-7.107,0-11.988,1.228-14.651,3.663
		c-2.664,2.445-3.996,7.222-3.996,14.319V255.744z"/>
	<path fill="#254840" d="M2231.06,117.882h11.988v65.268h-27.973c-27.972,0-41.957,15.984-41.957,47.952V446.22h-75.259V119.214
		h74.593v41.958c3.548-12.873,10.427-23.31,20.646-31.302C2203.307,121.878,2215.96,117.882,2231.06,117.882z"/>
	<path fill="#254840" d="M2323.628,119.214l41.958,256.41l41.958-256.41h75.258l-67.266,327.005h-99.9l-67.266-327.005H2323.628z"/>
	<path fill="#254840" d="M2511.431,65.934V0h79.254v65.934H2511.431z M2588.688,446.22h-75.259V119.214h75.259V446.22z"/>
	<path fill="#254840" d="M2851.75,229.104h-73.926v-33.3c0-7.097-1.332-11.874-3.996-14.319c-2.664-2.435-7.555-3.663-14.651-3.663
		H2735.2c-7.107,0-11.988,1.228-14.651,3.663c-2.664,2.445-3.996,7.222-3.996,14.319V369.63c0,7.107,1.332,11.884,3.996,14.318
		c2.663,2.446,7.544,3.663,14.651,3.663h23.977c7.097,0,11.987-1.217,14.651-3.663c2.664-2.435,3.996-7.211,3.996-14.318v-33.966
		h73.926v44.622c0,43.956-24.204,65.934-72.594,65.934h-65.268c-48.399,0-72.595-21.978-72.595-65.934V185.148
		c0-43.956,24.195-65.934,72.595-65.934h65.268c48.39,0,72.594,21.978,72.594,65.934V229.104z"/>
	<path fill="#254840" d="M2968.294,119.214h70.596c47.952,0,71.928,21.978,71.928,65.934v119.213H2968.96v67.267
		c0,7.107,1.217,11.884,3.663,14.318c2.435,2.446,7.43,3.663,14.984,3.663h30.636c7.098,0,11.988-1.217,14.652-3.663
		c2.664-2.435,3.996-7.211,3.996-14.318v-24.643h73.26v33.301c0,43.956-24.205,65.934-72.594,65.934h-69.264
		c-48.399,0-72.595-21.978-72.595-65.934V185.148C2895.699,141.192,2919.895,119.214,2968.294,119.214z M2968.96,255.744h69.264
		V193.14c0-7.097-1.332-11.874-3.996-14.319c-2.664-2.435-7.555-3.663-14.652-3.663h-31.968c-7.107,0-11.988,1.228-14.651,3.663
		c-2.664,2.445-3.996,7.222-3.996,14.319V255.744z"/>
	<path fill="#254840" d="M3278.648,374.292v-45.954c0-7.098-1.332-11.874-3.995-14.319c-2.664-2.435-7.773-3.663-15.318-3.663
		h-35.964c-47.516,0-71.262-21.749-71.262-65.267v-59.94c0-43.956,24.194-65.934,72.594-65.934h52.613
		c47.952,0,71.929,21.978,71.929,65.934v30.636h-72.594v-24.642c0-7.097-1.332-11.874-3.996-14.319
		c-2.664-2.435-7.556-3.663-14.652-3.663h-13.32c-7.555,0-12.653,1.228-15.317,3.663c-2.664,2.445-3.996,7.222-3.996,14.319v47.952
		c0,7.107,1.332,11.883,3.996,14.319c2.664,2.445,7.763,3.663,15.317,3.663h35.964c47.952,0,71.929,21.759,71.929,65.268v57.942
		c0,43.956-24.205,65.934-72.595,65.934h-53.945c-48.399,0-72.595-21.978-72.595-65.934v-29.971h73.927v23.977
		c0,7.107,1.332,11.884,3.996,14.318c2.664,2.446,7.544,3.663,14.651,3.663h13.32c7.545,0,12.654-1.217,15.318-3.663
		C3277.316,386.176,3278.648,381.399,3278.648,374.292z"/>
</g>
<g>
</g>
<g>
</g>
<g>
</g>
<g>
</g>
<g>
</g>
</svg>
